<?xml version="1.0" ?><svg viewBox="0 0 64 64" xmlns="http://www.w3.org/2000/svg"><title/><g id="Laptop"><path d="M55,9H9a5.0059,5.0059,0,0,0-5,5V48a1,1,0,0,0,1,1H59a1,1,0,0,0,1-1V14A5.0059,5.0059,0,0,0,55,9Z" style="fill:#e6ecff"/><rect height="30" rx="1" ry="1" style="fill:#d0dbf7" width="48" x="8" y="13"/><path d="M63,47H1a1,1,0,0,0-1,1v5a4.0042,4.0042,0,0,0,4,4H60a4.0042,4.0042,0,0,0,4-4V48A1,1,0,0,0,63,47Z" style="fill:#4294ff"/><path d="M9,47v5a1,1,0,0,0,1,1H54a1,1,0,0,0,1-1V47Z" style="fill:#376cfb"/><path d="M50.923,18.6181A1.0037,1.0037,0,0,0,50,18H46a1,1,0,0,0,0,2h1.5859L42,25.5859,38.707,22.293a.9994.9994,0,0,0-1.414,0l-4,4a1,1,0,0,0,1.414,1.414L38,24.4141l3.293,3.2929a.9995.9995,0,0,0,1.414,0L49,21.4141V23a1,1,0,0,0,2,0V19A1,1,0,0,0,50.923,18.6181Z" style="fill:#376cfb"/><path d="M34,38a1,1,0,0,1-1-1V32a1,1,0,0,1,2,0v5A1,1,0,0,1,34,38Z" style="fill:#376cfb"/><path d="M38,38a1,1,0,0,1-1-1V28a1,1,0,0,1,2,0v9A1,1,0,0,1,38,38Z" style="fill:#376cfb"/><path d="M42,38a1,1,0,0,1-1-1V32a1,1,0,0,1,2,0v5A1,1,0,0,1,42,38Z" style="fill:#376cfb"/><path d="M46,38a1,1,0,0,1-1-1V30a1,1,0,0,1,2,0v7A1,1,0,0,1,46,38Z" style="fill:#376cfb"/><path d="M50,38a1,1,0,0,1-1-1V27a1,1,0,0,1,2,0V37A1,1,0,0,1,50,38Z" style="fill:#376cfb"/><path d="M23,25H19V21a1,1,0,0,0-1-1,6,6,0,1,0,6,6A1,1,0,0,0,23,25Z" style="fill:#4294ff"/><path d="M21,17a1,1,0,0,0-1,1v5a1,1,0,0,0,1,1h5a1,1,0,0,0,1-1A6.0066,6.0066,0,0,0,21,17Z" style="fill:#376cfb"/><path d="M26,35H13a1,1,0,0,1,0-2H26a1,1,0,0,1,0,2Z" style="fill:#4294ff"/><path d="M18,38H13a1,1,0,0,1,0-2h5a1,1,0,0,1,0,2Z" style="fill:#4294ff"/><path d="M51,38H30a1,1,0,0,1-1-1V19a1,1,0,0,1,2,0V36H51a1,1,0,0,1,0,2Z" style="fill:#4294ff"/></g></svg>